<?xml version="1.0" encoding="UTF-8" standalone="no" ?>
<!DOCTYPE svg PUBLIC "-//W3C//DTD SVG 1.1//EN" "http://www.w3.org/Graphics/SVG/1.1/DTD/svg11.dtd">
<svg xmlns="http://www.w3.org/2000/svg" xmlns:xlink="http://www.w3.org/1999/xlink" version="1.1" width="4000" height="3000" viewBox="-1030.59 -677.65 4000 3000" xml:space="preserve">
<desc>Created with Fabric.js 5.2.4</desc>
<defs>
</defs>
<rect x="0" y="0" width="100%" height="100%" fill="transparent"></rect>
<g transform="matrix(0 0 0 0 0 0)" id="0805e999-105b-4e55-9f30-449580b7e9b1"  >
</g>
<g transform="matrix(1 0 0 1 600 314)" id="9b07d3e1-5c83-4221-83e5-41dca193c606"  >
<rect style="stroke: none; stroke-width: 1; stroke-dasharray: none; stroke-linecap: butt; stroke-dashoffset: 0; stroke-linejoin: miter; stroke-miterlimit: 4; fill: rgb(255,255,255); fill-rule: nonzero; opacity: 1; visibility: hidden;" vector-effect="non-scaling-stroke"  x="-600" y="-314" rx="0" ry="0" width="1200" height="628" />
</g>
<g transform="matrix(0 0 0 0 399.02 146.17)"  >
<g style=""   >
</g>
</g>
<g transform="matrix(2.19 0 0 2.19 840.35 544.24)"  >
<path style="stroke: none; stroke-width: 0; stroke-dasharray: none; stroke-linecap: butt; stroke-dashoffset: 0; stroke-linejoin: miter; stroke-miterlimit: 4; fill: rgb(255,0,136); fill-rule: nonzero; opacity: 1;" vector-effect="non-scaling-stroke"  transform=" translate(-213.51, -123.22)" d="M 62.24 143.2 L 62.24 137.07999999999998 L 67.64 134.92 L 67.64 101.07999999999998 L 62.24 98.91999999999999 L 62.24 92.79999999999998 L 78.8 92.43999999999998 L 98.96 92.43999999999998 L 98.96 106.11999999999998 L 92.264 106.11999999999998 L 90.464 101.07999999999997 L 78.8 101.07999999999997 L 78.8 113.67999999999996 L 93.704 113.67999999999996 L 93.704 121.59999999999997 L 78.8 121.59999999999997 L 78.8 134.91999999999996 L 85.42399999999999 137.07999999999996 L 85.42399999999999 143.19999999999996 L 62.239999999999995 143.19999999999996 z M 127.72472 103.6 C 139.38872 103.6 145.86872 110.65599999999999 145.86872 123.03999999999999 C 145.86872 136 138.30872 143.92 126.64471999999999 143.92 C 114.90871999999999 143.92 108.28472 137.79999999999998 108.28472 124.11999999999999 C 108.28472 111.16 115.98871999999999 103.6 127.72471999999999 103.6 z M 127.36472 112.24 C 122.10872 112.24 119.44472 115.11999999999999 119.44472 123.75999999999999 C 119.44472 131.67999999999998 121.74872 135.28 127.00472 135.28 C 132.18872000000002 135.28 134.70872 132.04 134.70872 123.4 C 134.70872 116.05600000000001 132.54872 112.24000000000001 127.36472 112.24000000000001 z M 175.35344 103.6 C 187.01744 103.6 193.49744 110.65599999999999 193.49744 123.03999999999999 C 193.49744 136 185.93744 143.92 174.27344000000002 143.92 C 162.53744000000003 143.92 155.91344000000004 137.79999999999998 155.91344000000004 124.11999999999999 C 155.91344000000004 111.16 163.61744000000004 103.6 175.35344000000003 103.6 z M 174.99344 112.24 C 169.73744 112.24 167.07344 115.11999999999999 167.07344 123.75999999999999 C 167.07344 131.67999999999998 169.37744 135.28 174.63344 135.28 C 179.81744 135.28 182.33744000000002 132.04 182.33744000000002 123.4 C 182.33744000000002 116.05600000000001 180.17744000000002 112.24000000000001 174.99344000000002 112.24000000000001 z M 230.18216 143.2 L 229.53416 139.384 C 228.52616 140.392 224.85416 143.92 218.66216000000003 143.92 C 208.58216000000002 143.92 203.90216000000004 136.576 203.90216000000004 124.69599999999998 C 203.90216000000004 111.15999999999998 210.38216000000003 103.59999999999998 223.55816000000004 103.59999999999998 C 225.28616000000005 103.59999999999998 227.37416000000005 103.95999999999998 228.95816000000005 104.31999999999998 L 228.95816000000005 95.17599999999997 L 223.19816000000006 93.73599999999998 L 223.19816000000006 87.97599999999997 L 239.75816000000006 87.39999999999998 L 239.75816000000006 135.49599999999998 L 245.51816000000005 136.93599999999998 L 245.51816000000005 142.69599999999997 z M 228.95816 131.176 L 228.95816 113.32 C 227.59016 112.672 225.43016 112.24 223.34215999999998 112.24 C 217.22215999999997 112.24 215.06215999999998 116.91999999999999 215.06215999999998 124.11999999999999 C 215.06215999999998 131.392 217.07815999999997 135.28 221.97415999999998 135.28 C 226.58216 135.28 228.95816 131.176 228.95816 131.176 z M 258.94688 92.44 C 258.94688 88.336 261.89888 85.96 265.13888000000003 85.96 C 268.88288000000006 85.96 271.18688000000003 87.904 271.18688000000003 92.44 C 271.18688000000003 96.688 268.09088 98.99199999999999 265.13888000000003 98.99199999999999 C 261.25088000000005 98.99199999999999 258.94688 96.68799999999999 258.94688 92.44 z M 271.04288 135.64 L 276.08288000000005 137.44 L 276.08288000000005 143.2 L 254.48288000000005 143.2 L 254.48288000000005 137.44 L 260.24288000000007 135.64 L 260.24288000000007 112.23999999999998 L 254.48288000000008 110.43999999999998 L 254.48288000000008 104.67999999999998 L 271.0428800000001 104.31999999999998 L 271.0428800000001 135.64 z M 292.6076 105.04 L 292.6076 101.80000000000001 C 292.6076 92.656 297.8636 86.53600000000002 308.0876 86.53600000000002 C 315.8636 86.53600000000002 320.8316 89.20000000000002 320.8316 89.20000000000002 L 320.6156 99.78400000000002 L 314.13559999999995 99.78400000000002 L 313.05559999999997 94.74400000000001 C 313.05559999999997 94.74400000000001 311.32759999999996 94.45600000000002 308.9516 94.45600000000002 C 304.9916 94.45600000000002 303.4076 96.83200000000002 303.4076 100.57600000000002 L 303.4076 105.04000000000002 L 312.7676 105.04000000000002 L 312.5516 112.24000000000002 L 303.4076 112.24000000000002 L 303.4076 135.64000000000001 L 310.6076 137.44000000000003 L 310.6076 143.20000000000002 L 286.8476 143.20000000000002 L 286.8476 137.44000000000003 L 292.6076 135.64000000000001 L 292.6076 112.24000000000001 L 286.1276 112.24000000000001 L 286.1276 106.12 z M 321.87632 110.44 L 321.87632 104.67999999999999 L 341.10032 104.32 L 341.10032 110.44 L 337.06832 111.16 L 343.47632000000004 131.32 L 349.59632000000005 111.37599999999999 L 345.42032000000006 110.43999999999998 L 345.42032000000006 104.67999999999998 L 364.78832000000006 104.31999999999998 L 364.78832000000006 110.43999999999998 L 360.32432000000006 111.37599999999999 L 349.74032000000005 140.896 C 346.28432000000004 150.39999999999998 341.60432000000003 160.48 330.15632000000005 160.48 C 327.70832000000007 160.48 323.17232000000007 159.904 323.17232000000007 159.904 L 324.18032000000005 152.2 L 328.86032000000006 152.2 C 334.62032000000005 152.2 337.28432000000004 146.07999999999998 338.5083200000001 143.272 L 325.6923200000001 111.59199999999998 z" stroke-linecap="round" />
</g>
</svg>